<svg xmlns="http://www.w3.org/2000/svg" xmlns:xlink="http://www.w3.org/1999/xlink" width="64" zoomAndPan="magnify" viewBox="0 0 375 374.999991" height="24" preserveAspectRatio="xMidYMid meet" version="1.0"><defs><g/></defs><g fill="#30575b" fill-opacity="1"><g transform="translate(0.0000045, 14.134212)"><g><path d="M 3.53125 -3.6875 L 6 -3.6875 L 4.796875 -7.53125 L 4.765625 -7.53125 Z M 2.3125 0 L 0.171875 0 L 3.625 -9.71875 L 5.984375 -9.71875 L 9.40625 0 L 7.203125 0 L 6.578125 -2 L 2.984375 -2 Z M 2.3125 0 "/></g></g></g><g fill="#30575b" fill-opacity="1"><g transform="translate(9.566907, 14.134212)"><g><path d="M 7.4375 0 L 5.546875 0 L 5.546875 -4.484375 C 5.546875 -4.898438 5.445312 -5.222656 5.25 -5.453125 C 5.0625 -5.679688 4.75 -5.796875 4.3125 -5.796875 C 3.851562 -5.796875 3.488281 -5.644531 3.21875 -5.34375 C 2.957031 -5.050781 2.828125 -4.648438 2.828125 -4.140625 L 2.828125 0 L 0.921875 0 L 0.921875 -7.203125 L 2.75 -7.203125 L 2.75 -6.15625 L 2.765625 -6.15625 C 3.222656 -6.976562 3.941406 -7.390625 4.921875 -7.390625 C 5.660156 -7.390625 6.265625 -7.175781 6.734375 -6.75 C 7.203125 -6.332031 7.4375 -5.742188 7.4375 -4.984375 Z M 7.4375 0 "/></g></g></g><g fill="#30575b" fill-opacity="1"><g transform="translate(17.831334, 14.134212)"><g><path d="M 2.453125 -3.546875 C 2.453125 -2.910156 2.585938 -2.390625 2.859375 -1.984375 C 3.140625 -1.578125 3.519531 -1.375 4 -1.375 C 4.53125 -1.375 4.941406 -1.5625 5.234375 -1.9375 C 5.535156 -2.3125 5.6875 -2.8125 5.6875 -3.4375 C 5.6875 -4.207031 5.546875 -4.785156 5.265625 -5.171875 C 4.992188 -5.554688 4.59375 -5.75 4.0625 -5.75 C 3.550781 -5.75 3.15625 -5.554688 2.875 -5.171875 C 2.59375 -4.785156 2.453125 -4.242188 2.453125 -3.546875 Z M 7.5 0 L 5.640625 0 L 5.640625 -0.90625 L 5.609375 -0.90625 C 5.179688 -0.175781 4.488281 0.1875 3.53125 0.1875 C 2.570312 0.1875 1.828125 -0.164062 1.296875 -0.875 C 0.765625 -1.582031 0.5 -2.519531 0.5 -3.6875 C 0.5 -4.820312 0.773438 -5.722656 1.328125 -6.390625 C 1.890625 -7.054688 2.609375 -7.390625 3.484375 -7.390625 C 4.410156 -7.390625 5.109375 -7.015625 5.578125 -6.265625 L 5.609375 -6.265625 L 5.609375 -9.71875 L 7.5 -9.71875 Z M 7.5 0 "/></g></g></g><g fill="#30575b" fill-opacity="1"><g transform="translate(26.247828, 14.134212)"><g><path d="M 0.921875 -7.203125 L 2.75 -7.203125 L 2.75 -5.953125 L 2.765625 -5.953125 C 2.992188 -6.429688 3.265625 -6.789062 3.578125 -7.03125 C 3.890625 -7.269531 4.28125 -7.390625 4.75 -7.390625 C 4.875 -7.390625 4.992188 -7.382812 5.109375 -7.375 L 5.109375 -5.4375 C 5.023438 -5.457031 4.847656 -5.46875 4.578125 -5.46875 C 3.984375 -5.46875 3.539062 -5.320312 3.25 -5.03125 C 2.96875 -4.75 2.828125 -4.320312 2.828125 -3.75 L 2.828125 0 L 0.921875 0 Z M 0.921875 -7.203125 "/></g></g></g><g fill="#30575b" fill-opacity="1"><g transform="translate(31.589953, 14.134212)"><g><path d="M 5.421875 -4.3125 C 5.378906 -4.769531 5.226562 -5.140625 4.96875 -5.421875 C 4.707031 -5.703125 4.367188 -5.84375 3.953125 -5.84375 C 3.054688 -5.84375 2.546875 -5.332031 2.421875 -4.3125 Z M 7.296875 -2.109375 C 7.066406 -1.367188 6.664062 -0.800781 6.09375 -0.40625 C 5.53125 -0.0078125 4.875 0.1875 4.125 0.1875 C 2.9375 0.1875 2.03125 -0.132812 1.40625 -0.78125 C 0.78125 -1.4375 0.46875 -2.347656 0.46875 -3.515625 C 0.46875 -4.679688 0.757812 -5.617188 1.34375 -6.328125 C 1.9375 -7.035156 2.816406 -7.390625 3.984375 -7.390625 C 5.035156 -7.390625 5.863281 -7.054688 6.46875 -6.390625 C 7.070312 -5.722656 7.375 -4.734375 7.375 -3.421875 L 7.375 -3.09375 L 2.359375 -3.09375 C 2.398438 -2.5 2.570312 -2.054688 2.875 -1.765625 C 3.175781 -1.472656 3.582031 -1.328125 4.09375 -1.328125 C 4.40625 -1.328125 4.671875 -1.398438 4.890625 -1.546875 C 5.117188 -1.691406 5.269531 -1.878906 5.34375 -2.109375 Z M 7.296875 -2.109375 "/></g></g></g><g fill="#30575b" fill-opacity="1"><g transform="translate(39.351903, 14.134212)"><g><path d="M 5.0625 -3.5 C 4.820312 -3.332031 4.367188 -3.203125 3.703125 -3.109375 C 3.128906 -3.023438 2.753906 -2.894531 2.578125 -2.71875 C 2.410156 -2.539062 2.328125 -2.3125 2.328125 -2.03125 C 2.328125 -1.738281 2.421875 -1.519531 2.609375 -1.375 C 2.796875 -1.238281 3.015625 -1.171875 3.265625 -1.171875 C 3.753906 -1.171875 4.175781 -1.304688 4.53125 -1.578125 C 4.882812 -1.847656 5.0625 -2.1875 5.0625 -2.59375 Z M 6.90625 -1.40625 C 6.90625 -1.070312 6.9375 -0.8125 7 -0.625 C 7.0625 -0.4375 7.171875 -0.320312 7.328125 -0.28125 L 7.328125 0 L 5.296875 0 C 5.210938 -0.238281 5.148438 -0.523438 5.109375 -0.859375 C 4.492188 -0.160156 3.691406 0.1875 2.703125 0.1875 C 2.023438 0.1875 1.476562 0 1.0625 -0.375 C 0.644531 -0.757812 0.4375 -1.269531 0.4375 -1.90625 C 0.4375 -2.53125 0.613281 -3.039062 0.96875 -3.4375 C 1.332031 -3.84375 1.878906 -4.097656 2.609375 -4.203125 L 4.375 -4.453125 C 4.625 -4.492188 4.800781 -4.5625 4.90625 -4.65625 C 5.007812 -4.757812 5.0625 -4.890625 5.0625 -5.046875 C 5.0625 -5.316406 4.957031 -5.523438 4.75 -5.671875 C 4.550781 -5.816406 4.242188 -5.890625 3.828125 -5.890625 C 3.390625 -5.890625 3.066406 -5.804688 2.859375 -5.640625 C 2.660156 -5.484375 2.539062 -5.226562 2.5 -4.875 L 0.65625 -4.875 C 0.75 -5.75 1.046875 -6.382812 1.546875 -6.78125 C 2.054688 -7.1875 2.863281 -7.390625 3.96875 -7.390625 C 4.863281 -7.390625 5.578125 -7.210938 6.109375 -6.859375 C 6.640625 -6.503906 6.90625 -5.988281 6.90625 -5.3125 Z M 6.90625 -1.40625 "/></g></g></g></svg>